<svg xmlns="http://www.w3.org/2000/svg" width="37.339" height="24.405" viewBox="0 0 37.339 24.405">
  <path id="Path_121" data-name="Path 121" d="M29.059-7.058A4.668,4.668,0,0,1,25.476-5.5a4.792,4.792,0,0,1-3.622-1.556,5.231,5.231,0,0,1-1.473-3.726,5.09,5.09,0,0,1,1.473-3.685,4.854,4.854,0,0,1,3.622-1.515A4.854,4.854,0,0,1,29.1-14.469a5.09,5.09,0,0,1,1.473,3.685A5.157,5.157,0,0,1,29.059-7.058Zm-13.614,0A4.624,4.624,0,0,1,11.9-5.5,4.874,4.874,0,0,1,8.28-7.058a5.157,5.157,0,0,1-1.513-3.726A5.021,5.021,0,0,1,8.28-14.469,4.938,4.938,0,0,1,11.9-15.984a4.809,4.809,0,0,1,3.583,1.515,5.09,5.09,0,0,1,1.473,3.685A5.157,5.157,0,0,1,15.445-7.058ZM7.006-1.407a21,21,0,0,1,4.9-.655,20.035,20.035,0,0,1,4.817.655A15.565,15.565,0,0,1,21.575.723Q23.8,2.2,23.8,4.081V8.421H0V4.081A4.123,4.123,0,0,1,2.189.723,15.089,15.089,0,0,1,7.006-1.407Zm18.47-.655a20.169,20.169,0,0,1,4.856.655A15.089,15.089,0,0,1,35.149.723a4.123,4.123,0,0,1,2.189,3.358V8.421H27.148V4.081A7.447,7.447,0,0,0,23.8-1.98Q24.839-2.062,25.476-2.062Z" transform="translate(0 15.984)" fill="#155093"/>
</svg>
