<svg xmlns="http://www.w3.org/2000/svg" width="98" height="98" viewBox="0 0 98 98">
  <g id="Group_15959" data-name="Group 15959" transform="translate(-1592.27 -1690.536)">
    <g id="Ellipse_232" data-name="Ellipse 232" transform="translate(1592.27 1690.536)" fill="none" stroke="#155093" stroke-width="3">
      <circle cx="49" cy="49" r="49" stroke="none"/>
      <circle cx="49" cy="49" r="47.5" fill="none"/>
    </g>
    <g id="Group_15960" data-name="Group 15960" transform="translate(1378.83 1810.668)">
      <path id="Path_1665" data-name="Path 1665" d="M286.11,148.264c6.948,4.308,14.07,4.792,21.511,1.358.169,1.385.37,2.742.487,4.107A1.152,1.152,0,0,1,307,154.907a5.206,5.206,0,0,1-.595.009H287.209c-1.373,0-1.751-.451-1.6-1.824C285.785,151.517,286.072,149.954,286.11,148.264Z" transform="translate(-40.969 -211.398)" fill="#f47741"/>
      <g id="Group_15960-2" data-name="Group 15960" transform="translate(237.439 -100.133)">
        <path id="Path_1666" data-name="Path 1666" d="M286.345-48.469q-1.8-2.371-3.606-4.737c-2.734-3.592-.8-1.145-3.54-4.736a2.158,2.158,0,0,0-2.974-.818c-.485.289-.648.126-.921-.239q-2.389-3.184-4.829-6.33c-.342-.438-.338-.666.075-1.066A18.875,18.875,0,0,0,276.6-79.523c.034-13.192-10.894-22.382-22.924-20.321a19.5,19.5,0,0,0-15.94,16.093,19.4,19.4,0,0,0,9.477,20.108c6.637,3.717,13.342,3.6,19.97-.151.263-.149.463-.427.783,0,1.708,2.284,3.445,4.547,5.176,6.813.148.194.214.3-.008.537a2.165,2.165,0,0,0-.2,3.238c3.976,5.234,3.3,4.424,7.283,9.649a2.165,2.165,0,0,0,3.264.421c.8-.592,1.579-1.2,2.368-1.8A2.246,2.246,0,0,0,286.345-48.469ZM257.022-64.634a15.913,15.913,0,0,1-15.909-15.907A15.957,15.957,0,0,1,257.061-96.5a15.944,15.944,0,0,1,15.906,15.929A15.9,15.9,0,0,1,257.022-64.634Z" transform="translate(-237.439 100.133)" fill="#155093"/>
        <path id="Path_1667" data-name="Path 1667" d="M303.252-27.042a12.278,12.278,0,0,0-13.827-9.569A12.187,12.187,0,0,0,279.1-23.506a9.633,9.633,0,0,0,1.366,5.019,14.191,14.191,0,0,0,11.449,6.359,14.759,14.759,0,0,0,10.03-3.533,1.4,1.4,0,0,0,.551-.987c.211-2,.456-3.987.858-5.959A10.626,10.626,0,0,0,303.252-27.042ZM283.547-24.65a1.5,1.5,0,0,1,0-2.644,5.311,5.311,0,0,1,5.621.006,1.5,1.5,0,0,1,0,2.646,4.931,4.931,0,0,1-2.814.811A4.875,4.875,0,0,1,283.547-24.65Zm9.692,10.142c-.668.032-1.338.006-2.008.006v0c-.62,0-1.24.021-1.859,0a1.49,1.49,0,0,1-1.528-1.708c0-1.083.51-1.688,1.513-1.709q1.933-.04,3.867,0c.962.019,1.474.619,1.482,1.658C294.715-15.168,294.22-14.554,293.239-14.508Zm5.722-10.023a5.091,5.091,0,0,1-2.619.7,5.083,5.083,0,0,1-2.695-.721,1.552,1.552,0,0,1-.033-2.82A5.44,5.44,0,0,1,299-27.386,1.555,1.555,0,0,1,298.961-24.53Z" transform="translate(-272.859 46.182)" fill="#f47741"/>
      </g>
    </g>
  </g>
</svg>
