<svg id="increased-revenue" xmlns="http://www.w3.org/2000/svg" width="36.278" height="36.723" viewBox="0 0 36.278 36.723">
  <g id="Layer_1_87_" transform="translate(0)">
    <g id="Group_1366" data-name="Group 1366">
      <path id="Path_130" data-name="Path 130" d="M40.857,9.1c0-.654-.664-.845-1.181-.96v1.9C40.253,10.006,40.857,9.735,40.857,9.1Z" transform="translate(-8.899 -1.781)" fill="#155093"/>
      <path id="Path_131" data-name="Path 131" d="M38.637,4.185c-.653.019-1.077.4-1.077.816,0,.481.358.759,1.077.9V4.185Z" transform="translate(-8.436 -0.915)" fill="#155093"/>
      <path id="Path_132" data-name="Path 132" d="M37.657,11.616a5.808,5.808,0,1,0-5.81-5.807A5.814,5.814,0,0,0,37.657,11.616ZM35.1,4.307A2.1,2.1,0,0,1,37.388,2.29V1.779a.29.29,0,1,1,.576,0V2.29c.748.02,2.286.489,2.286,1.432a.577.577,0,0,1-.606.595c-.626,0-.616-1.027-1.68-1.047V5.095c1.269.269,2.391.644,2.391,2.123,0,1.286-.96,1.94-2.391,2.027v.594a.29.29,0,1,1-.576,0V9.244C35.766,9.2,34.96,8.235,34.96,7.476a.553.553,0,0,1,.595-.6c1.076,0,.24,1.325,1.835,1.393V6.256C35.965,6,35.1,5.373,35.1,4.307Z" transform="translate(-7.187)" fill="#155093"/>
      <path id="Path_133" data-name="Path 133" d="M7.486,33.113H2.479A1.669,1.669,0,0,0,.81,34.783v7.511a1.67,1.67,0,0,0,1.669,1.67H7.486a1.668,1.668,0,0,0,1.669-1.67V34.783A1.668,1.668,0,0,0,7.486,33.113Z" transform="translate(-0.399 -7.242)" fill="#155093"/>
      <path id="Path_134" data-name="Path 134" d="M24.05,25.637H19.043a1.669,1.669,0,0,0-1.669,1.67V40.66a1.669,1.669,0,0,0,1.669,1.67H24.05a1.669,1.669,0,0,0,1.67-1.67V27.3A1.669,1.669,0,0,0,24.05,25.637Z" transform="translate(-4.022 -5.607)" fill="#155093"/>
      <path id="Path_135" data-name="Path 135" d="M40.617,17.091H35.611a1.669,1.669,0,0,0-1.67,1.669v20.03a1.669,1.669,0,0,0,1.67,1.67h5.007a1.668,1.668,0,0,0,1.67-1.67V18.761A1.669,1.669,0,0,0,40.617,17.091Z" transform="translate(-7.645 -3.738)" fill="#155093"/>
      <path id="Path_136" data-name="Path 136" d="M23.248,10.725,19.1,9.858a.834.834,0,0,0-.907,1.209l.919,1.727L.737,22.275A.834.834,0,0,0,1.12,23.85a.82.82,0,0,0,.382-.093l18.4-9.489.843,1.584a.834.834,0,0,0,.737.443l.042,0a.834.834,0,0,0,.731-.518l1.6-3.921a.831.831,0,0,0-.036-.707A.848.848,0,0,0,23.248,10.725Z" transform="translate(-0.285 -2.152)" fill="#155093"/>
    </g>
  </g>
</svg>
