<svg id="increased-revenue" xmlns="http://www.w3.org/2000/svg" width="58.662" height="60.092" viewBox="0 0 58.662 60.092">
  <g id="Layer_1_87_" transform="translate(0)">
    <g id="Group_1365" data-name="Group 1365">
      <path id="Path_123" data-name="Path 123" d="M41.586,9.714c0-1.07-1.074-1.382-1.91-1.571v3.112C40.608,11.191,41.586,10.749,41.586,9.714Z" transform="translate(10.09 2.268)" fill="#e6ecf3"/>
      <path id="Path_124" data-name="Path 124" d="M39.3,4.185c-1.056.031-1.741.661-1.741,1.336,0,.786.579,1.241,1.742,1.477V4.185Z" transform="translate(9.533 1.166)" fill="#e6ecf3"/>
      <path id="Path_125" data-name="Path 125" d="M41.241,19.008a9.5,9.5,0,1,0-9.394-9.5A9.458,9.458,0,0,0,41.241,19.008Zm-4.13-11.96c0-2.135,1.755-3.238,3.7-3.3V2.911a.47.47,0,1,1,.931,0v.836c1.209.032,3.7.8,3.7,2.344a.939.939,0,0,1-.979.973c-1.012,0-1-1.681-2.716-1.713V8.337c2.052.44,3.866,1.053,3.866,3.474,0,2.1-1.553,3.175-3.866,3.316V16.1a.47.47,0,1,1-.931,0v-.972c-2.624-.065-3.928-1.652-3.928-2.895a.9.9,0,0,1,.961-.99c1.74,0,.388,2.168,2.968,2.28V10.237C38.506,9.813,37.111,8.792,37.111,7.047Z" transform="translate(8.028)" fill="#e6ecf3"/>
      <path id="Path_126" data-name="Path 126" d="M11.606,33.113h-8.1a2.715,2.715,0,0,0-2.7,2.732v12.29a2.716,2.716,0,0,0,2.7,2.732h8.1a2.714,2.714,0,0,0,2.7-2.732V35.845A2.714,2.714,0,0,0,11.606,33.113Z" transform="translate(-0.146 9.222)" fill="#e6ecf3"/>
      <path id="Path_127" data-name="Path 127" d="M28.17,25.637h-8.1a2.715,2.715,0,0,0-2.7,2.732V50.22a2.715,2.715,0,0,0,2.7,2.732h8.1a2.715,2.715,0,0,0,2.7-2.732V28.365A2.715,2.715,0,0,0,28.17,25.637Z" transform="translate(4.216 7.14)" fill="#e6ecf3"/>
      <path id="Path_128" data-name="Path 128" d="M44.737,17.091h-8.1a2.715,2.715,0,0,0-2.7,2.731V52.6a2.715,2.715,0,0,0,2.7,2.732h8.1a2.714,2.714,0,0,0,2.7-2.732V19.823A2.715,2.715,0,0,0,44.737,17.091Z" transform="translate(8.58 4.76)" fill="#e6ecf3"/>
      <path id="Path_129" data-name="Path 129" d="M37.416,11.287l-6.7-1.418a1.345,1.345,0,0,0-1.356.517,1.38,1.38,0,0,0-.111,1.463l1.486,2.827L1.015,30.187a1.373,1.373,0,0,0-.58,1.838,1.348,1.348,0,0,0,1.2.739,1.314,1.314,0,0,0,.618-.152L32,17.085l1.363,2.593a1.347,1.347,0,0,0,1.191.725l.068,0a1.349,1.349,0,0,0,1.181-.848l2.589-6.416a1.364,1.364,0,0,0-.975-1.85Z" transform="translate(-0.285 2.741)" fill="#e6ecf3"/>
    </g>
  </g>
</svg>
