<svg xmlns="http://www.w3.org/2000/svg" width="60.092" height="57.946" viewBox="0 0 60.092 57.946">
  <g id="male" opacity="0.1">
    <path id="Path_119" data-name="Path 119" d="M37.479,48.692c-1.483-.236-1.517-4.313-1.517-4.313a20.76,20.76,0,0,0,5.307-10.114c2.555,0,4.133-6.167,1.577-8.336C42.954,23.645,46.13,8,30.046,8s-12.907,15.645-12.8,17.929c-2.555,2.17-.977,8.336,1.578,8.336A20.759,20.759,0,0,0,24.13,44.379s-.034,4.077-1.517,4.313C17.837,49.452,0,57.32,0,65.946H60.092C60.092,57.32,42.256,49.452,37.479,48.692Z" transform="translate(0 -8)" fill="#155093"/>
  </g>
</svg>
