<svg id="money-bag-with-dollar-symbol" xmlns="http://www.w3.org/2000/svg" width="50.916" height="62.757" viewBox="0 0 50.916 62.757">
  <g id="Group_1374" data-name="Group 1374" transform="translate(0 0)">
    <g id="Group_1367" data-name="Group 1367" transform="translate(26.739 40.33)">
      <path id="Path_137" data-name="Path 137" d="M224.254,274.466a2.922,2.922,0,0,0-.819-.608,9.733,9.733,0,0,0-2.075-.749v5.614a3.877,3.877,0,0,0,3.075-1.657h0a2.617,2.617,0,0,0,.228-1.752A1.778,1.778,0,0,0,224.254,274.466Z" transform="translate(-221.36 -273.108)" fill="#e6ecf3"/>
    </g>
    <g id="Group_1368" data-name="Group 1368" transform="translate(29.808 44.286)">
      <path id="Path_138" data-name="Path 138" d="M242.6,299.911l.006-.011h0Z" transform="translate(-242.604 -299.9)" fill="#e6ecf3"/>
    </g>
    <g id="Group_1369" data-name="Group 1369" transform="translate(20.973 31.322)">
      <path id="Path_139" data-name="Path 139" d="M181.812,213.5a2.135,2.135,0,0,0-.356.987,2.417,2.417,0,0,0,.118,1.091,1.737,1.737,0,0,0,.664.747,5.145,5.145,0,0,0,.987.521c.288.119.612.232.962.342v-5.08A3.774,3.774,0,0,0,181.812,213.5Z" transform="translate(-181.441 -212.106)" fill="#e6ecf3"/>
    </g>
    <g id="Group_1370" data-name="Group 1370" transform="translate(29.814 44.245)">
      <path id="Path_140" data-name="Path 140" d="M242.67,299.619l-.023.041h0Z" transform="translate(-242.647 -299.619)" fill="#e6ecf3"/>
    </g>
    <g id="Group_1371" data-name="Group 1371" transform="translate(29.866 44.189)">
      <path id="Path_141" data-name="Path 141" d="M243,299.247Z" transform="translate(-243.004 -299.244)" fill="#e6ecf3"/>
    </g>
    <g id="Group_1372" data-name="Group 1372" transform="translate(0 0)">
      <path id="Path_142" data-name="Path 142" d="M64.912,13.655C69.582,9.645,72.7.61,70.782.215,68.23-.311,62.69,1.993,60.012,2.4c-3.8.469-7.935-4.211-10.257-1.6C47.867,2.917,51.108,10.63,56.18,13.99c-15.131,7.6-36.4,45.769.7,48.538C108.22,66.359,82.514,21.064,64.912,13.655Zm4.409,30.1A5.547,5.547,0,0,1,67.239,47.5a7.848,7.848,0,0,1-4.261,1.539v1.644a1.568,1.568,0,0,1-.51,1.157,1.5,1.5,0,0,1-1.631.246,1.56,1.56,0,0,1-.879-1.4v-1.8c-.26-.051-.518-.111-.774-.182a7.389,7.389,0,0,1-3.694-2.323,6.837,6.837,0,0,1-1.138-1.923c-.07-.183-.133-.37-.188-.559a2.918,2.918,0,0,1-.119-.523,1.574,1.574,0,0,1,.164-.87,1.5,1.5,0,0,1,2.771.229c.057.178.1.36.161.536a3.479,3.479,0,0,0,.232.507,3.925,3.925,0,0,0,.663.868,4.467,4.467,0,0,0,1.922,1.07V39.61A10.627,10.627,0,0,1,56,37.86a4.687,4.687,0,0,1-1.337-1.642,5.236,5.236,0,0,1-.467-2.21,5.367,5.367,0,0,1,.452-2.238,5.452,5.452,0,0,1,1.239-1.738,7.485,7.485,0,0,1,4.071-1.845V26.482a1.568,1.568,0,0,1,.51-1.157,1.5,1.5,0,0,1,1.631-.246,1.56,1.56,0,0,1,.879,1.4v1.7q.3.038.59.092a7.394,7.394,0,0,1,3.942,1.956A5.894,5.894,0,0,1,68.717,32a5.732,5.732,0,0,1,.213.565,3.494,3.494,0,0,1,.142.551,1.577,1.577,0,0,1-.126.88,1.5,1.5,0,0,1-2.777-.1c-.063-.169-.095-.347-.159-.515a2.741,2.741,0,0,0-.247-.486,2.918,2.918,0,0,0-.713-.765,4.833,4.833,0,0,0-2.073-.828v5.845a18.856,18.856,0,0,1,2.579.783,6.052,6.052,0,0,1,3.147,2.52c-.107-.192-.211-.378,0,.006s.11.2,0,.008A5.612,5.612,0,0,1,69.321,43.755Z" transform="translate(-36.238 0)" fill="#e6ecf3"/>
    </g>
    <g id="Group_1373" data-name="Group 1373" transform="translate(29.769 44.326)">
      <path id="Path_143" data-name="Path 143" d="M242.359,300.169l-.022.041Z" transform="translate(-242.337 -300.169)" fill="#e6ecf3"/>
    </g>
  </g>
</svg>
