<svg id="money-bag-with-dollar-symbol" xmlns="http://www.w3.org/2000/svg" width="30.46" height="36.723" viewBox="0 0 30.46 36.723">
  <g id="Group_1382" data-name="Group 1382" transform="translate(0 0)">
    <g id="Group_1375" data-name="Group 1375" transform="translate(15.997 23.6)">
      <path id="Path_144" data-name="Path 144" d="M223.091,273.9a1.745,1.745,0,0,0-.49-.356,5.905,5.905,0,0,0-1.241-.439v3.285a2.333,2.333,0,0,0,1.839-.97h0a1.5,1.5,0,0,0,.137-1.026A1.031,1.031,0,0,0,223.091,273.9Z" transform="translate(-221.36 -273.108)" fill="#155093"/>
    </g>
    <g id="Group_1376" data-name="Group 1376" transform="translate(17.832 25.915)">
      <path id="Path_145" data-name="Path 145" d="M242.6,299.906l0-.006h0Z" transform="translate(-242.604 -299.9)" fill="#155093"/>
    </g>
    <g id="Group_1377" data-name="Group 1377" transform="translate(12.547 18.328)">
      <path id="Path_146" data-name="Path 146" d="M181.663,212.921a1.232,1.232,0,0,0-.213.578,1.385,1.385,0,0,0,.07.638,1.024,1.024,0,0,0,.4.437,3.1,3.1,0,0,0,.591.3c.172.069.366.136.575.2v-2.973A2.269,2.269,0,0,0,181.663,212.921Z" transform="translate(-181.441 -212.106)" fill="#155093"/>
    </g>
    <g id="Group_1378" data-name="Group 1378" transform="translate(17.836 25.89)">
      <path id="Path_147" data-name="Path 147" d="M242.661,299.619l-.014.024h0Z" transform="translate(-242.647 -299.619)" fill="#155093"/>
    </g>
    <g id="Group_1379" data-name="Group 1379" transform="translate(17.867 25.858)">
      <path id="Path_148" data-name="Path 148" d="M243,299.246Z" transform="translate(-243.004 -299.244)" fill="#155093"/>
    </g>
    <g id="Group_1380" data-name="Group 1380">
      <path id="Path_149" data-name="Path 149" d="M53.392,7.991C56.186,5.644,58.052.357,56.9.126c-1.526-.307-4.841,1.04-6.443,1.278-2.272.274-4.747-2.464-6.136-.938-1.129,1.241.81,5.754,3.844,7.72-9.052,4.449-21.775,26.782.421,28.4C79.3,38.831,63.922,12.326,53.392,7.991ZM56.03,25.6A3.229,3.229,0,0,1,54.784,27.8a4.76,4.76,0,0,1-2.549.9v.962a.9.9,0,1,1-1.806,0V28.607c-.156-.03-.31-.065-.463-.107a4.434,4.434,0,0,1-2.21-1.359,3.983,3.983,0,0,1-.681-1.126c-.042-.107-.08-.216-.113-.327a1.678,1.678,0,0,1-.071-.306.9.9,0,0,1,1.756-.375c.034.1.058.211.1.314a2.012,2.012,0,0,0,.139.3,2.3,2.3,0,0,0,.4.508,2.689,2.689,0,0,0,1.15.626V23.178a6.429,6.429,0,0,1-2.369-1.024,2.756,2.756,0,0,1-.8-.961,3.007,3.007,0,0,1-.279-1.293,3.081,3.081,0,0,1,.271-1.309,3.192,3.192,0,0,1,.741-1.017,4.524,4.524,0,0,1,2.436-1.079v-1a.9.9,0,1,1,1.807,0v.993q.177.022.353.054a4.462,4.462,0,0,1,2.359,1.145,3.447,3.447,0,0,1,.722,1.038,3.309,3.309,0,0,1,.128.33,2.008,2.008,0,0,1,.085.322.9.9,0,0,1-1.737.457c-.038-.1-.057-.2-.1-.3a1.592,1.592,0,0,0-.148-.284,1.723,1.723,0,0,0-.427-.448,2.928,2.928,0,0,0-1.24-.485v3.42a11.469,11.469,0,0,1,1.543.458A3.607,3.607,0,0,1,55.66,23.67c-.064-.112-.126-.221,0,0s.066.116,0,0A3.222,3.222,0,0,1,56.03,25.6Z" transform="translate(-36.238 0)" fill="#155093"/>
    </g>
    <g id="Group_1381" data-name="Group 1381" transform="translate(17.809 25.938)">
      <path id="Path_150" data-name="Path 150" d="M242.351,300.169l-.014.024Z" transform="translate(-242.337 -300.169)" fill="#155093"/>
    </g>
  </g>
</svg>
