<svg xmlns="http://www.w3.org/2000/svg" width="98" height="98" viewBox="0 0 98 98">
  <g id="Group_15957" data-name="Group 15957" transform="translate(-1592.27 -1690.536)">
    <g id="Ellipse_232" data-name="Ellipse 232" transform="translate(1592.27 1690.536)" fill="none" stroke="#155093" stroke-width="3">
      <circle cx="49" cy="49" r="49" stroke="none"/>
      <circle cx="49" cy="49" r="47.5" fill="none"/>
    </g>
    <g id="Group_15958" data-name="Group 15958" transform="translate(1145.577 2341.118)">
      <path id="Path_1660" data-name="Path 1660" d="M495.018-549.753a.93.93,0,0,1,.046.175c0,.844,0,1.688,0,2.6h-.415l-21.3.005c-.16,0-.321,0-.481,0-1.029.022-1.219.2-1.219,1.247q-.006,12.422,0,24.844a4.687,4.687,0,0,0,.051.565.58.58,0,0,0,.579.55c.319.027.641.036.961.036q15.746,0,31.492,0c3.426,0,6.852.014,10.278.022.1,0,.2,0,.306,0,1.04-.02,1.384-.362,1.384-1.411q0-4.483-.017-8.966a.837.837,0,0,1,.3-.672c.8-.765,1.566-1.56,2.406-2.4.018.2.037.32.037.439q0,8.595,0,17.19a6.966,6.966,0,0,1-.1,1.174,2.914,2.914,0,0,1-2.7,2.615,8.589,8.589,0,0,1-1.176.081q-7.633.008-15.265,0h-.52c.029.446.052.848.082,1.249.045.611.105,1.22.139,1.831a3.787,3.787,0,0,0,1.936,3.227q1.013.606,2.023,1.217c.124.075.293.138.348.252a1.23,1.23,0,0,1,.185.7c-.026.126-.357.269-.551.27-3.309.015-6.619.008-9.929.007-3.018,0-6.036.007-9.054-.012a.927.927,0,0,1-.7-.288c-.184-.308.089-.59.342-.759.655-.436,1.313-.872,2-1.244a4.014,4.014,0,0,0,2.223-3.65c.034-.914.12-1.825.187-2.8h-.56q-7.654,0-15.309,0a10.552,10.552,0,0,1-1.221-.073,3.021,3.021,0,0,1-2.866-3.129c-.026-.319-.028-.641-.028-.961q0-14.893,0-29.786a9.011,9.011,0,0,1,.089-1.306,2.941,2.941,0,0,1,2.765-2.747,8.267,8.267,0,0,1,1.176-.087q10.847-.008,21.694,0Zm1.317,34.169a2.2,2.2,0,0,0-2.167-2.271A2.217,2.217,0,0,0,492-515.629a2.212,2.212,0,0,0,2.194,2.249A2.207,2.207,0,0,0,496.335-515.584Z" transform="translate(0 -71.487)" fill="#155093"/>
      <path id="Path_1661" data-name="Path 1661" d="M822.892-621.361a26.257,26.257,0,0,1-3.065,11.6,21.338,21.338,0,0,1-8.322,8.22,1.948,1.948,0,0,1-2.041-.037,21.311,21.311,0,0,1-10.524-14.113,31.429,31.429,0,0,1-.791-6.629,1.989,1.989,0,0,1,2.027-2.245,16.917,16.917,0,0,0,9.134-3.125,2.027,2.027,0,0,1,2.522.068,16.061,16.061,0,0,0,6.894,2.815c.706.1,1.418.169,2.129.231a2.03,2.03,0,0,1,2.036,2.206C822.891-622.031,822.892-621.7,822.892-621.361Zm-21.155,6.6c.5,3.381,6.17,10.285,8.861,10.785v-10.745h.605c2.61,0,5.22-.007,7.83.007a.481.481,0,0,0,.547-.406,24.709,24.709,0,0,0,1.042-6.586,3.558,3.558,0,0,0-.031-.378,18.667,18.667,0,0,1-10.044-3.428v10.752Z" transform="translate(-300.427)" fill="#f47741"/>
      <path id="Path_1662" data-name="Path 1662" d="M543.2-446.94v1.832h-1.574c0-.452-.025-.9.007-1.342.029-.4-.1-.55-.5-.685a11.439,11.439,0,0,1-2.427-1.051,3.239,3.239,0,0,1-1.418-3.431h2.728c.04.222.079.447.123.671a1.879,1.879,0,0,0,1.621,1.606,4.184,4.184,0,0,0,1.044.032,1.624,1.624,0,0,0,1.551-1.31,1.8,1.8,0,0,0-.79-2.094c-.815-.449-1.674-.817-2.509-1.232a16.066,16.066,0,0,1-1.661-.874,3.635,3.635,0,0,1-1.707-3.552,3.756,3.756,0,0,1,2.38-3.34,10.815,10.815,0,0,1,1.369-.447.421.421,0,0,0,.366-.488c-.022-.535-.006-1.071-.006-1.631h1.577v2.068c2.9.926,4.087,2.314,3.846,4.489h-2.774c-.052-.245-.1-.511-.165-.775a1.948,1.948,0,0,0-2.914-1.2,1.92,1.92,0,0,0-.026,3.044c.79.486,1.657.848,2.49,1.265.56.28,1.138.529,1.678.844a3.654,3.654,0,0,1,1.809,3.664,3.529,3.529,0,0,1-2.151,3.284A20.654,20.654,0,0,1,543.2-446.94Z" transform="translate(-62.305 -149.485)" fill="#f47741"/>
      <path id="Path_1663" data-name="Path 1663" d="M681.221-301.285h9a3.882,3.882,0,0,1,.523.019,1.048,1.048,0,0,1,.909,1.06,1.057,1.057,0,0,1-.921,1.05,3.518,3.518,0,0,1-.436.015q-9.112,0-18.224,0a2.208,2.208,0,0,1-.647-.066,1.036,1.036,0,0,1-.683-1.141,1.026,1.026,0,0,1,.907-.918,4.311,4.311,0,0,1,.523-.017Z" transform="translate(-184.16 -298.216)" fill="#f47741"/>
      <path id="Path_1664" data-name="Path 1664" d="M677.755-380.1c1.954,0,3.907,0,5.861,0a1.05,1.05,0,0,1,1.137,1.145,1.022,1.022,0,0,1-.812.961,2.692,2.692,0,0,1-.564.043q-5.642,0-11.284,0c-.058,0-.117,0-.175,0a1.087,1.087,0,0,1-1.207-1.091c0-.649.473-1.06,1.228-1.061Q674.847-380.1,677.755-380.1Z" transform="translate(-184.137 -226.3)" fill="#f47741"/>
    </g>
  </g>
</svg>
