<svg xmlns="http://www.w3.org/2000/svg" width="102.016" height="122.178" viewBox="0 0 102.016 122.178">
  <g id="Post_a_Job_ic" data-name="Post a Job ic" transform="translate(2204.744 503.196)">
    <g id="Path_1677" data-name="Path 1677" transform="translate(0 0)" fill="#155093">
      <path d="M -2175.723388671875 -385.3491516113281 C -2180.6171875 -385.3491516113281 -2184.642822265625 -385.3509521484375 -2188.391845703125 -385.3548278808594 C -2193.003662109375 -385.3597717285156 -2196.919189453125 -386.7857360839844 -2199.71484375 -389.478515625 C -2202.502685546875 -392.1636352539063 -2203.979248046875 -395.9212036132813 -2203.985107421875 -400.3450317382813 C -2203.99560546875 -408.0647277832031 -2203.994873046875 -415.9136962890625 -2203.993896484375 -423.5042419433594 L -2203.99365234375 -427.7725524902344 L -2203.99365234375 -429.5307006835938 C -2203.992919921875 -448.4302062988281 -2203.9921875 -467.97314453125 -2203.984375 -487.194091796875 C -2203.982666015625 -491.7705688476563 -2202.51123046875 -495.6083068847656 -2199.728759765625 -498.29248046875 C -2196.938232421875 -500.9845581054688 -2192.94384765625 -502.4091796875 -2188.17724609375 -502.4122619628906 C -2184.8505859375 -502.4143981933594 -2181.523681640625 -502.4149780273438 -2178.197021484375 -502.4149780273438 C -2176.127685546875 -502.4149780273438 -2174.0576171875 -502.4147338867188 -2171.987548828125 -502.4145202636719 C -2169.917236328125 -502.414306640625 -2167.84716796875 -502.4140625 -2165.777587890625 -502.4140625 C -2157.12353515625 -502.4140625 -2147.847900390625 -502.4179382324219 -2138.654296875 -502.446044921875 L -2138.62646484375 -502.4461059570313 C -2137.109375 -502.4461059570313 -2136.143310546875 -502.0723266601563 -2135.1806640625 -501.1130065917969 C -2132.3388671875 -498.2811279296875 -2129.42431640625 -495.4267578125 -2126.60595703125 -492.6663818359375 C -2122.650634765625 -488.7926635742188 -2118.560791015625 -484.7870788574219 -2114.61181640625 -480.7853698730469 C -2113.468017578125 -479.6264343261719 -2112.658935546875 -477.9580383300781 -2112.64453125 -476.7281494140625 C -2112.5126953125 -465.6158447265625 -2112.5263671875 -454.3132019042969 -2112.539306640625 -443.3827209472656 C -2112.542724609375 -440.434814453125 -2112.54638671875 -437.3865356445313 -2112.547119140625 -434.3883056640625 C -2112.547119140625 -434.3778381347656 -2112.547119140625 -434.3672180175781 -2112.54736328125 -434.3565063476563 C -2113.484130859375 -434.6215209960938 -2114.416748046875 -434.8855285644531 -2115.364990234375 -435.1539001464844 L -2118.11376953125 -435.9318237304688 L -2118.11376953125 -476.354736328125 L -2118.11376953125 -477.104736328125 L -2118.86376953125 -477.104736328125 C -2119.74609375 -477.104736328125 -2120.6064453125 -477.1038818359375 -2121.4521484375 -477.1030578613281 C -2122.268310546875 -477.1022644042969 -2123.070556640625 -477.1015014648438 -2123.865234375 -477.1015014648438 C -2124.984130859375 -477.1015014648438 -2125.9072265625 -477.1030578613281 -2126.770263671875 -477.1064758300781 C -2130.435546875 -477.1207885742188 -2133.494873046875 -478.2100524902344 -2135.61767578125 -480.2565307617188 C -2137.732666015625 -482.2956848144531 -2138.858154296875 -485.2316589355469 -2138.872314453125 -488.7470397949219 C -2138.878662109375 -490.4139709472656 -2138.876953125 -492.0761413574219 -2138.875244140625 -493.8359069824219 C -2138.874267578125 -494.6797790527344 -2138.87353515625 -495.5434875488281 -2138.87353515625 -496.4365844726563 L -2138.87353515625 -497.1865844726563 L -2139.62353515625 -497.1865844726563 L -2142.315185546875 -497.1865844726563 C -2146.6923828125 -497.1865844726563 -2151.06982421875 -497.1871337890625 -2155.447509765625 -497.1876831054688 C -2159.8251953125 -497.1882019042969 -2164.203125 -497.1887512207031 -2168.580078125 -497.1887512207031 C -2176.118408203125 -497.1887512207031 -2182.27001953125 -497.1870727539063 -2187.940185546875 -497.1834716796875 C -2194.752685546875 -497.1793518066406 -2198.354248046875 -493.6839294433594 -2198.355224609375 -487.0751342773438 C -2198.35595703125 -481.6976013183594 -2198.35302734375 -476.2303466796875 -2198.35009765625 -470.9430847167969 C -2198.347412109375 -465.9460144042969 -2198.3447265625 -460.77880859375 -2198.344970703125 -455.6966552734375 C -2198.345703125 -447.407958984375 -2198.34765625 -439.1192626953125 -2198.349853515625 -430.83056640625 C -2198.352294921875 -420.9406433105469 -2198.354736328125 -410.7139587402344 -2198.354736328125 -400.6556396484375 C -2198.354736328125 -394.0751953125 -2194.73779296875 -390.593994140625 -2187.89501953125 -390.5884094238281 C -2186.567138671875 -390.5872802734375 -2185.239501953125 -390.5859680175781 -2183.91162109375 -390.5845947265625 C -2180.828125 -390.5814819335938 -2177.6396484375 -390.5782165527344 -2174.503662109375 -390.5782165527344 C -2168.612548828125 -390.5782165527344 -2163.832763671875 -390.5901184082031 -2159.461181640625 -390.6156616210938 L -2159.416748046875 -390.6157836914063 C -2158.235107421875 -390.6157836914063 -2157.807373046875 -390.3585510253906 -2157.42626953125 -389.4190673828125 C -2156.941162109375 -388.2232971191406 -2156.308837890625 -387.0956420898438 -2155.639404296875 -385.9017944335938 C -2155.537841796875 -385.7207946777344 -2155.435302734375 -385.5377197265625 -2155.331787109375 -385.3521728515625 L -2156.524169921875 -385.3521728515625 C -2159.72412109375 -385.3521728515625 -2162.92431640625 -385.3514099121094 -2166.12451171875 -385.3506469726563 C -2169.32421875 -385.3499145507813 -2172.52392578125 -385.3491516113281 -2175.723388671875 -385.3491516113281 Z" stroke="none"/>
      <path d="M -2175.733642578125 -386.0991516113281 C -2172.532470703125 -386.0991516113281 -2169.330810546875 -386.0998840332031 -2166.129150390625 -386.1006469726563 C -2162.956298828125 -386.1014099121094 -2159.783203125 -386.1021728515625 -2156.61083984375 -386.1021728515625 C -2157.173095703125 -387.1121215820313 -2157.697265625 -388.0920104980469 -2158.12109375 -389.1371765136719 C -2158.24951171875 -389.4536743164063 -2158.381103515625 -389.6528625488281 -2158.51171875 -389.729248046875 C -2158.6669921875 -389.81982421875 -2158.971435546875 -389.8657836914063 -2159.416748046875 -389.8657836914063 L -2159.456787109375 -389.8656616210938 C -2163.82763671875 -389.8401184082031 -2168.6083984375 -389.8282470703125 -2174.501708984375 -389.8282470703125 C -2177.637939453125 -389.8282470703125 -2180.82666015625 -389.8314819335938 -2183.91015625 -389.8345947265625 C -2185.23876953125 -389.8359680175781 -2186.567138671875 -389.8373107910156 -2187.8955078125 -389.8384094238281 C -2195.228759765625 -389.8443908691406 -2199.104736328125 -393.5849304199219 -2199.104736328125 -400.6556396484375 C -2199.104736328125 -410.7183837890625 -2199.102294921875 -420.9494323730469 -2199.099853515625 -430.8436584472656 C -2199.09765625 -439.1280212402344 -2199.095703125 -447.4123840332031 -2199.094970703125 -455.6966857910156 C -2199.0947265625 -460.7762756347656 -2199.097412109375 -465.9409790039063 -2199.10009765625 -470.9356384277344 C -2199.10302734375 -476.2253112792969 -2199.10595703125 -481.6950988769531 -2199.105224609375 -487.0752258300781 C -2199.10400390625 -494.17431640625 -2195.243408203125 -497.9290161132813 -2187.940673828125 -497.9334716796875 C -2182.262939453125 -497.9370727539063 -2176.107177734375 -497.9387512207031 -2168.567626953125 -497.9387512207031 C -2164.1923828125 -497.9387512207031 -2159.81689453125 -497.9382019042969 -2155.441162109375 -497.9376831054688 C -2151.06591796875 -497.9371337890625 -2146.6904296875 -497.9365844726563 -2142.315185546875 -497.9365844726563 L -2139.62353515625 -497.9365844726563 L -2138.12353515625 -497.9365844726563 L -2138.12353515625 -496.4365844726563 C -2138.12353515625 -495.5433349609375 -2138.124267578125 -494.6794738769531 -2138.125244140625 -493.83544921875 C -2138.126953125 -492.0765075683594 -2138.128662109375 -490.4151306152344 -2138.122314453125 -488.7500610351563 C -2138.109130859375 -485.4420166015625 -2137.06298828125 -482.6917114257813 -2135.09716796875 -480.7964477539063 C -2133.1162109375 -478.8866271972656 -2130.23583984375 -477.8699951171875 -2126.767333984375 -477.8564453125 C -2125.90576171875 -477.8530578613281 -2124.98388671875 -477.8515014648438 -2123.8662109375 -477.8515014648438 C -2123.071533203125 -477.8515014648438 -2122.269287109375 -477.8522644042969 -2121.453125 -477.8530578613281 C -2120.607177734375 -477.8539123535156 -2119.746337890625 -477.854736328125 -2118.86376953125 -477.854736328125 L -2117.36376953125 -477.854736328125 L -2117.36376953125 -476.354736328125 L -2117.36376953125 -436.4990234375 L -2115.141845703125 -435.8702087402344 L -2113.296875 -435.3480529785156 C -2113.295654296875 -438.0353393554688 -2113.29248046875 -440.749755859375 -2113.289306640625 -443.3839416503906 C -2113.2763671875 -454.3119506835938 -2113.262939453125 -465.6119689941406 -2113.39453125 -476.7192993164063 C -2113.406494140625 -477.7376403808594 -2114.1591796875 -479.2592163085938 -2115.1455078125 -480.2585754394531 C -2119.090087890625 -484.2557678222656 -2123.177734375 -488.2590942382813 -2127.130859375 -492.1306457519531 C -2129.950439453125 -494.8921203613281 -2132.865966796875 -497.7475891113281 -2135.710205078125 -500.5817260742188 C -2136.535888671875 -501.4044799804688 -2137.298828125 -501.6960754394531 -2138.62646484375 -501.6960754394531 L -2138.65185546875 -501.696044921875 C -2147.844970703125 -501.6679382324219 -2157.122314453125 -501.6640625 -2165.7783203125 -501.6640625 C -2167.84619140625 -501.6640625 -2169.91455078125 -501.6642761230469 -2171.98291015625 -501.6645202636719 C -2174.05126953125 -501.6647338867188 -2176.119384765625 -501.6649780273438 -2178.187255859375 -501.6649780273438 C -2181.516845703125 -501.6649780273438 -2184.84716796875 -501.6643676757813 -2188.1767578125 -501.6622619628906 C -2197.46142578125 -501.65625 -2203.231201171875 -496.1122741699219 -2203.234375 -487.1937866210938 C -2203.2421875 -467.9807739257813 -2203.242919921875 -448.44580078125 -2203.24365234375 -429.5540161132813 L -2203.24365234375 -427.7724914550781 L -2203.244140625 -423.4927062988281 C -2203.244873046875 -415.9061889648438 -2203.24560546875 -408.0614013671875 -2203.235107421875 -400.3460388183594 C -2203.2294921875 -396.1304626464844 -2201.832275390625 -392.559326171875 -2199.194580078125 -390.0187072753906 C -2196.541259765625 -387.4629516601563 -2192.805419921875 -386.1095581054688 -2188.39111328125 -386.1048278808594 C -2184.644287109375 -386.1009521484375 -2180.622314453125 -386.0991516113281 -2175.733642578125 -386.0991516113281 M -2175.733642578125 -384.5991516113281 C -2179.953857421875 -384.5991516113281 -2184.17236328125 -384.6004638671875 -2188.392578125 -384.6048278808594 C -2198.1953125 -384.6153564453125 -2204.72265625 -390.9039306640625 -2204.735107421875 -400.3440551757813 C -2204.74755859375 -409.4870300292969 -2204.744140625 -418.6295776367188 -2204.74365234375 -427.7725830078125 C -2204.742919921875 -447.5797119140625 -2204.742431640625 -467.3872680664063 -2204.734375 -487.1943969726563 C -2204.73095703125 -496.9447631835938 -2198.297119140625 -503.1557006835938 -2188.177734375 -503.1622619628906 C -2184.847900390625 -503.1643676757813 -2181.51708984375 -503.1649780273438 -2178.187255859375 -503.1649780273438 C -2174.051513671875 -503.1649780273438 -2169.9140625 -503.1640625 -2165.7783203125 -503.1640625 C -2156.73681640625 -503.1640625 -2147.69775390625 -503.1683959960938 -2138.656494140625 -503.196044921875 C -2138.646484375 -503.1960754394531 -2138.636474609375 -503.1960754394531 -2138.62646484375 -503.1960754394531 C -2136.997314453125 -503.1960754394531 -2135.815673828125 -502.8044738769531 -2134.6513671875 -501.6442260742188 C -2127.82275390625 -494.8399658203125 -2120.845947265625 -488.1704406738281 -2114.077880859375 -481.3121948242188 C -2112.924072265625 -480.14306640625 -2111.912841796875 -478.2870483398438 -2111.89453125 -476.7369995117188 C -2111.727294921875 -462.6224365234375 -2111.793701171875 -448.5048522949219 -2111.797119140625 -434.3881225585938 C -2111.797119140625 -434.099365234375 -2111.854736328125 -433.8105773925781 -2111.899169921875 -433.3936462402344 C -2114.185791015625 -434.04052734375 -2116.416015625 -434.6720581054688 -2118.86376953125 -435.3646240234375 L -2118.86376953125 -476.354736328125 C -2120.597900390625 -476.354736328125 -2122.248046875 -476.3514709472656 -2123.8662109375 -476.3514709472656 C -2124.8427734375 -476.3514709472656 -2125.80810546875 -476.3526611328125 -2126.773193359375 -476.3564758300781 C -2134.644775390625 -476.38720703125 -2139.591796875 -481.1568603515625 -2139.622314453125 -488.7440185546875 C -2139.631591796875 -491.21533203125 -2139.62353515625 -493.6866149902344 -2139.62353515625 -496.4365844726563 L -2142.315185546875 -496.4365844726563 C -2151.065673828125 -496.4365844726563 -2159.817138671875 -496.4387512207031 -2168.567626953125 -496.4387512207031 C -2175.025390625 -496.4387512207031 -2181.48193359375 -496.4375915527344 -2187.939697265625 -496.4334716796875 C -2194.379638671875 -496.4295654296875 -2197.604248046875 -493.2977600097656 -2197.605224609375 -487.0750122070313 C -2197.6064453125 -476.6154174804688 -2197.594482421875 -466.15625 -2197.594970703125 -455.6966247558594 C -2197.596435546875 -437.349609375 -2197.604736328125 -419.0026245117188 -2197.604736328125 -400.6556396484375 C -2197.604736328125 -394.4627380371094 -2194.35546875 -391.3436889648438 -2187.894287109375 -391.3384094238281 C -2183.430419921875 -391.3346862792969 -2178.9658203125 -391.3282470703125 -2174.501708984375 -391.3282470703125 C -2169.489501953125 -391.3282470703125 -2164.477783203125 -391.3363647460938 -2159.465576171875 -391.3656311035156 C -2159.44921875 -391.36572265625 -2159.432861328125 -391.3657531738281 -2159.416748046875 -391.3657531738281 C -2158.036376953125 -391.3657531738281 -2157.2626953125 -391.0110778808594 -2156.731201171875 -389.7009887695313 C -2156.052978515625 -388.0293273925781 -2155.0634765625 -386.4730834960938 -2154.067138671875 -384.6021728515625 C -2155.05322265625 -384.6021728515625 -2155.78857421875 -384.6021728515625 -2156.524169921875 -384.6021728515625 C -2162.9267578125 -384.6021728515625 -2169.3310546875 -384.5991516113281 -2175.733642578125 -384.5991516113281 Z" stroke="none" fill="#fff"/>
    </g>
    <path id="Path_1678" data-name="Path 1678" d="M-2059.68-280.916a21.958,21.958,0,0,1-22.032-22.016,22.051,22.051,0,0,1,22-21.87,22.046,22.046,0,0,1,22.032,22.058A21.954,21.954,0,0,1-2059.68-280.916Zm-3.636-18.346v7.382c0,4.707,0,4.628,4.61,4.677,2.021.022,2.739-.723,2.67-2.7-.106-3.043-.028-6.092-.028-9.352,2.6,0,4.928,0,7.253,0,5.13-.008,4.638.468,4.731-4.732.036-1.976-.808-2.54-2.64-2.483-3.044.1-6.094.026-9.344.026,0-2.73,0-5.2,0-7.67,0-4.282,0-4.282-4.3-4.268-2.865.009-2.946.083-2.954,2.975-.009,2.958,0,5.915,0,8.963-2.645,0-4.906,0-7.167,0-5.2,0-4.74-.513-4.81,4.88-.022,1.7.615,2.368,2.315,2.328C-2069.851-299.315-2066.72-299.262-2063.316-299.262Z" transform="translate(-65.048 -100.102)" fill="#f47741"/>
    <path id="Path_1679" data-name="Path 1679" d="M-2139.336-409.919c8.263,0,16.525.014,24.787-.012,1.506,0,2.854.239,3.309,1.875a2.315,2.315,0,0,1-1.74,3.055,7.463,7.463,0,0,1-2.169.171q-24.129.012-48.259,0c-.585,0-1.346.2-1.718-.083-.889-.689-2.076-1.521-2.264-2.469-.287-1.446.855-2.446,2.39-2.509,2.117-.086,4.24-.032,6.36-.032Q-2148.988-409.922-2139.336-409.919Z" transform="translate(-19.369 -52.331)" fill="#f47741"/>
    <path id="Path_1680" data-name="Path 1680" d="M-2139.315-368.625q-12.336,0-24.672,0c-2.341,0-3.7-.93-3.566-2.57.163-2.06,1.607-2.552,3.411-2.542,10.708.063,21.417.135,32.125.151,5.762.008,11.524-.122,17.285-.11a4.128,4.128,0,0,1,2.616.732,2.726,2.726,0,0,1,.72,2.448,3.854,3.854,0,0,1-2.593,1.805c-5.675.159-11.357.075-17.036.072h-8.29Z" transform="translate(-19.306 -72.642)" fill="#f47741"/>
    <path id="Path_1681" data-name="Path 1681" d="M-2129.458-441.455c-5.694,0-11.388-.018-17.082.011-1.79.009-3.266-.356-3.418-2.473-.118-1.633,1.1-2.583,3.311-2.587q17.082-.027,34.164-.012c1.758,0,3.285.329,3.407,2.487.1,1.715-1.095,2.565-3.519,2.57Q-2121.027-441.443-2129.458-441.455Z" transform="translate(-29.059 -31.805)" fill="#f47741"/>
    <path id="Path_1682" data-name="Path 1682" d="M-2126.575-337.08c-1.661,1.474-3.145,2.864-4.719,4.142a3.019,3.019,0,0,1-1.769.59c-10.53.034-21.061.02-31.591.025-1.633,0-2.779-.731-2.84-2.38-.066-1.762,1.055-2.635,2.8-2.635q18.757,0,37.514.025A2.53,2.53,0,0,1-2126.575-337.08Z" transform="translate(-19.758 -93.068)" fill="#f47741"/>
    <path id="Path_1683" data-name="Path 1683" d="M-2139-301.078c.056.213.1.287.088.348-.935,4.651-.935,4.652-5.575,4.652q-9.412,0-18.824,0c-.583,0-1.168.009-1.75-.025a2.341,2.341,0,0,1-2.458-2.52,2.326,2.326,0,0,1,2.533-2.447Q-2151.971-301.1-2139-301.078Z" transform="translate(-19.95 -113.413)" fill="#f47741"/>
  </g>
</svg>
