<svg xmlns="http://www.w3.org/2000/svg" width="93" height="122" viewBox="0 0 93 122">
  <g id="perfect_Match_ic" data-name="perfect Match ic" transform="translate(894.351 -1931.86)">
    <g id="Path_1692" data-name="Path 1692" transform="translate(-894.351 1931.86)" fill="none">
      <path d="M17,0H76A17,17,0,0,1,93,17v88a17,17,0,0,1-17,17H17A17,17,0,0,1,0,105V17A17,17,0,0,1,17,0Z" stroke="none"/>
      <path d="M 17 3.5 C 13.39402008056641 3.5 10.00387573242188 4.904251098632813 7.454055786132813 7.454055786132813 C 4.904251098632813 10.00387573242188 3.5 13.39402008056641 3.5 17 L 3.5 105 C 3.5 108.6059799194336 4.904251098632813 111.9961242675781 7.454055786132813 114.5459442138672 C 10.00387573242188 117.0957489013672 13.39402008056641 118.5 17 118.5 L 76 118.5 C 79.60597991943359 118.5 82.99612426757813 117.0957489013672 85.54594421386719 114.5459442138672 C 88.09574890136719 111.9961242675781 89.5 108.6059799194336 89.5 105 L 89.5 17 C 89.5 13.39402008056641 88.09574890136719 10.00387573242188 85.54594421386719 7.454055786132813 C 82.99612426757813 4.904251098632813 79.60597991943359 3.5 76 3.5 L 17 3.5 M 17 0 L 76 0 C 85.38883972167969 0 93 7.611160278320313 93 17 L 93 105 C 93 114.3888397216797 85.38883972167969 122 76 122 L 17 122 C 7.611160278320313 122 0 114.3888397216797 0 105 L 0 17 C 0 7.611160278320313 7.611160278320313 0 17 0 Z" stroke="none" fill="#155093"/>
    </g>
    <g id="Group_15964" data-name="Group 15964" transform="translate(-881.793 1961.706)">
      <path id="Path_1685" data-name="Path 1685" d="M-3619.937,93.231a6.267,6.267,0,0,1,4.451,1.785q2.99,2.913,5.94,5.866a3.163,3.163,0,0,1-.7,5.116,24.372,24.372,0,0,1-2.545,1.2c-2.884,1.248-3.235,3.2-.945,5.339.105.1.215.193.327.283,1.9,1.516,3.544,1.159,4.61-1.014.441-.9.8-1.842,1.284-2.716a3.327,3.327,0,0,1,5.509-.773q2.8,2.75,5.584,5.51a6.031,6.031,0,0,1,.051,8.928q-8.4,8.34-16.844,16.636-4.021,3.968-8.043,7.933a2.168,2.168,0,0,1-3.716-.434c-.486-.822-.885-1.693-1.358-2.522a14.128,14.128,0,0,0-1.2-1.867,3.39,3.39,0,0,0-4.693-.911,6.255,6.255,0,0,0-2.946,3.314,2.936,2.936,0,0,0,.792,3.463,16.813,16.813,0,0,0,2.556,1.724c.824.491,1.727.856,2.549,1.351a2.076,2.076,0,0,1,.432,3.361c-1.346,1.367-2.7,2.726-4.1,4.039a4.494,4.494,0,0,1-6.432-.088q-10.665-10.5-21.309-21.029a4.417,4.417,0,0,1,.039-6.759q1.816-1.8,3.636-3.59a2.184,2.184,0,0,1,3.758.491c.365.616.676,1.263,1.016,1.894.271.5.526,1.019.824,1.508,1.753,2.875,4.222,3.2,6.7.887.158-.147.308-.3.452-.464,2.138-2.378,1.822-4.7-.918-6.372a34.647,34.647,0,0,0-3.32-1.745c-1.938-.908-1.9-2.778-.6-4.052q12.409-12.118,24.708-24.348A6.431,6.431,0,0,1-3619.937,93.231Zm-20.2,22.006c.741.7,1.341,1.254,1.921,1.825,2,1.968,3.989,3.949,5.994,5.914a1.651,1.651,0,0,0,2.854-.382c.364-.641.6-1.355.963-2a13.016,13.016,0,0,1,1.541-2.388,3.448,3.448,0,0,1,4.1-.863,7.788,7.788,0,0,1,2.337,1.508c2.978,2.839,2.344,6.137-1.438,7.786-.75.327-1.514.63-2.236,1.01a1.654,1.654,0,0,0-.437,2.914c2.181,2.161,4.375,4.31,6.552,6.474.388.386.721.826,1.088,1.25.257-.217.372-.3.472-.4q8.836-8.719,17.669-17.442a2.777,2.777,0,0,0,.014-4.243c-1.783-1.778-3.582-3.542-5.377-5.309-.132-.13-.283-.242-.484-.412a17.436,17.436,0,0,1-.989,2.261,14,14,0,0,1-2.116,2.936,5.006,5.006,0,0,1-5.326,1.05,8.23,8.23,0,0,1-4.971-4.517,5.243,5.243,0,0,1,1.551-6.624,19.292,19.292,0,0,1,2.936-1.655c.493-.264,1.011-.483,1.481-.7-2.059-2.077-4.017-4.119-6.067-6.065a3.112,3.112,0,0,0-1.788-.612,3.276,3.276,0,0,0-2.533,1.321q-7.774,7.7-15.566,15.372C-3638.648,113.9-3639.352,114.515-3640.134,115.237Z" transform="translate(3662.237 -93.231)" fill="#f47741"/>
      <path id="Path_1686" data-name="Path 1686" d="M-3305.925,447.811a5.668,5.668,0,0,1,1.188.685c1.29,1.232,2.544,2.5,3.792,3.777a1.652,1.652,0,0,1,.07,2.416,1.654,1.654,0,0,1-2.367-.067c-1.291-1.266-2.561-2.552-3.837-3.833a1.6,1.6,0,0,1-.385-1.9A1.89,1.89,0,0,1-3305.925,447.811Z" transform="translate(3359.242 -397.107)" fill="#155093"/>
      <path id="Path_1687" data-name="Path 1687" d="M-3598.4,155.828a3.1,3.1,0,0,1,.865.468q2.032,1.951,4,3.972a1.633,1.633,0,0,1-.011,2.314,1.625,1.625,0,0,1-2.312-.007c-1.347-1.309-2.668-2.645-3.984-3.985a1.551,1.551,0,0,1-.271-1.85A1.687,1.687,0,0,1-3598.4,155.828Z" transform="translate(3609.158 -146.877)" fill="#155093"/>
      <path id="Path_1688" data-name="Path 1688" d="M-3339.247,473.082c0,.715.01,1.429,0,2.144a1.638,1.638,0,0,1-1.663,1.824,1.624,1.624,0,0,1-1.631-1.782q-.025-2.215.006-4.43a1.62,1.62,0,0,1,1.691-1.789,1.644,1.644,0,0,1,1.6,1.818C-3339.238,471.6-3339.247,472.343-3339.247,473.082Z" transform="translate(3388.922 -415.307)" fill="#155093"/>
      <path id="Path_1689" data-name="Path 1689" d="M-3534.563,133.993c0,.786.015,1.573,0,2.358a1.582,1.582,0,0,1-1.6,1.649,1.6,1.6,0,0,1-1.66-1.674q-.03-2.322,0-4.645a1.6,1.6,0,0,1,1.65-1.682,1.581,1.581,0,0,1,1.613,1.708C-3534.551,132.468-3534.562,133.231-3534.563,133.993Z" transform="translate(3555.885 -124.741)" fill="#155093"/>
      <path id="Path_1690" data-name="Path 1690" d="M-3283.093,413.773c.786,0,1.572-.019,2.357,0a1.585,1.585,0,0,1,1.64,1.612,1.6,1.6,0,0,1-1.622,1.645q-2.392.048-4.785,0a1.585,1.585,0,0,1-1.6-1.662,1.576,1.576,0,0,1,1.649-1.6c.785-.021,1.571,0,2.357,0Z" transform="translate(3341.654 -367.929)" fill="#155093"/>
      <path id="Path_1691" data-name="Path 1691" d="M-3622.1,221.489c-.762,0-1.525.017-2.286,0a1.576,1.576,0,0,1-1.665-1.582,1.6,1.6,0,0,1,1.653-1.681q2.357-.039,4.715,0a1.6,1.6,0,0,1,1.633,1.631,1.579,1.579,0,0,1-1.62,1.629C-3620.481,221.509-3621.292,221.489-3622.1,221.489Z" transform="translate(3631.227 -200.332)" fill="#155093"/>
    </g>
  </g>
</svg>
