<svg xmlns="http://www.w3.org/2000/svg" width="122.178" height="122.178" viewBox="0 0 122.178 122.178">
  <g id="Get_Proposals_ic" data-name="Get Proposals ic" transform="translate(1466.44 -1931.86)">
    <g id="Path_1642" data-name="Path 1642" transform="translate(0 -0.14)" fill="#155093">
      <path d="M -1382.772705078125 2053.42822265625 L -1457.011108398438 2053.42822265625 C -1457.12744140625 2053.373046875 -1457.269653320313 2053.30859375 -1457.444091796875 2053.271484375 C -1459.423461914063 2052.85400390625 -1461.081420898438 2052.04931640625 -1462.372802734375 2050.879150390625 C -1463.656616210938 2049.7158203125 -1464.627197265625 2048.1474609375 -1465.257568359375 2046.2177734375 C -1465.37646484375 2045.853515625 -1465.471069335938 2045.47998046875 -1465.5712890625 2045.08447265625 C -1465.609497070313 2044.933349609375 -1465.64892578125 2044.77783203125 -1465.68994140625 2044.622436523438 L -1465.68994140625 1941.755981445313 C -1465.67822265625 1941.715942382813 -1465.666259765625 1941.675903320313 -1465.654296875 1941.635864257813 C -1465.6015625 1941.459350585938 -1465.547119140625 1941.27685546875 -1465.505493164063 1941.0791015625 C -1465.08447265625 1939.089233398438 -1464.286499023438 1937.42236328125 -1463.1337890625 1936.125610351563 C -1461.974243164063 1934.821166992188 -1460.411499023438 1933.841796875 -1458.488891601563 1933.214721679688 C -1458.085693359375 1933.083374023438 -1457.669067382813 1932.984130859375 -1457.227905273438 1932.879150390625 C -1457.0537109375 1932.837646484375 -1456.87451171875 1932.795043945313 -1456.6953125 1932.75 L -1393.241821289063 1932.75 C -1393.118896484375 1932.802856445313 -1392.952392578125 1932.873413085938 -1392.75341796875 1932.90234375 C -1390.499267578125 1933.231201171875 -1388.511352539063 1934.296752929688 -1386.67626953125 1936.160034179688 C -1384.5634765625 1938.305297851563 -1382.396728515625 1940.465698242188 -1380.301147460938 1942.554931640625 C -1379.282592773438 1943.570434570313 -1378.229370117188 1944.620483398438 -1377.195922851563 1945.6552734375 C -1375.1220703125 1947.731811523438 -1374.119018554688 1950.160400390625 -1374.12939453125 1953.07958984375 C -1374.15185546875 1959.535888671875 -1374.147705078125 1966.099487304688 -1374.1435546875 1972.447021484375 C -1374.141967773438 1974.998168945313 -1374.140258789063 1977.54931640625 -1374.140258789063 1980.100341796875 L -1374.140258789063 1981.0732421875 L -1374.140258789063 1981.563110351563 L -1373.691650390625 1981.760009765625 C -1373.624755859375 1981.789428710938 -1373.557861328125 1981.818969726563 -1373.491088867188 1981.8486328125 L -1373.363037109375 1981.905151367188 L -1372.804809570313 1982.151489257813 L -1372.450073242188 1981.655029296875 C -1372.381103515625 1981.558471679688 -1372.319458007813 1981.463623046875 -1372.259765625 1981.371948242188 C -1372.157470703125 1981.214599609375 -1372.060791015625 1981.06591796875 -1371.962768554688 1980.96728515625 C -1371.379516601563 1980.38134765625 -1370.796508789063 1979.794921875 -1370.21337890625 1979.20849609375 C -1367.532104492188 1976.511962890625 -1364.759399414063 1973.723510742188 -1362.010009765625 1971.005859375 C -1360.105712890625 1969.123413085938 -1357.596557617188 1968.086791992188 -1354.944702148438 1968.086791992188 C -1353.40771484375 1968.086791992188 -1351.879272460938 1968.447265625 -1350.5244140625 1969.12939453125 C -1349.091674804688 1969.850708007813 -1347.890869140625 1970.892578125 -1346.955322265625 1972.225952148438 C -1346.342163085938 1973.100463867188 -1345.960815429688 1974.162231445313 -1345.55712890625 1975.286376953125 C -1345.385620117188 1975.763671875 -1345.208984375 1976.255737304688 -1345.01171875 1976.735961914063 L -1345.01171875 1979.411865234375 C -1345.072875976563 1979.504272460938 -1345.132446289063 1979.625366210938 -1345.1572265625 1979.775268554688 C -1345.508178710938 1981.877563476563 -1346.534301757813 1983.752807617188 -1348.293823242188 1985.506958007813 C -1352.400390625 1989.599853515625 -1356.567993164063 1993.768920898438 -1360.598388671875 1997.80078125 C -1364.70068359375 2001.904663085938 -1368.942626953125 2006.148193359375 -1373.122436523438 2010.3134765625 C -1373.852416992188 2011.040893554688 -1374.16259765625 2011.775268554688 -1374.159423828125 2012.768920898438 C -1374.13134765625 2022.661376953125 -1374.13525390625 2032.550415039063 -1374.142700195313 2043.524658203125 C -1374.14404296875 2045.650268554688 -1374.79052734375 2047.662475585938 -1376.012451171875 2049.343505859375 C -1377.233764648438 2051.02392578125 -1378.949462890625 2052.262939453125 -1380.973754882813 2052.926513671875 C -1381.385131835938 2053.061279296875 -1381.802978515625 2053.17138671875 -1382.245361328125 2053.28759765625 C -1382.41796875 2053.3330078125 -1382.595581054688 2053.3798828125 -1382.772705078125 2053.42822265625 Z M -1431.345581054688 1938.396728515625 C -1439.303466796875 1938.396728515625 -1447.2607421875 1938.397338867188 -1455.218505859375 1938.399169921875 C -1458.237670898438 1938.399780273438 -1460.040283203125 1940.201293945313 -1460.040405273438 1943.21826171875 C -1460.044067382813 1975.290283203125 -1460.044189453125 2007.930541992188 -1460.040649414063 2043.004150390625 C -1460.040405273438 2046.013549804688 -1458.241943359375 2047.810302734375 -1455.22998046875 2047.810546875 C -1443.842651367188 2047.813232421875 -1431.94921875 2047.814697265625 -1419.88037109375 2047.814697265625 C -1408.582275390625 2047.814697265625 -1396.708251953125 2047.8134765625 -1384.588134765625 2047.81103515625 C -1381.47216796875 2047.810424804688 -1379.755615234375 2046.090209960938 -1379.754760742188 2042.96728515625 C -1379.753295898438 2037.471923828125 -1379.753540039063 2031.9765625 -1379.753784179688 2026.481323242188 L -1379.754028320313 2019.999267578125 L -1379.754028320313 2019.376098632813 L -1379.754028320313 2019.064697265625 L -1379.754028320313 2017.822875976563 L -1380.853149414063 2018.40087890625 C -1381.130859375 2018.546997070313 -1381.38330078125 2018.692260742188 -1381.62744140625 2018.832763671875 C -1382.091918945313 2019.10009765625 -1382.4931640625 2019.330932617188 -1382.900146484375 2019.469482421875 C -1385.886596679688 2020.486083984375 -1388.931030273438 2021.50048828125 -1391.875244140625 2022.481323242188 C -1393.65771484375 2023.075317382813 -1395.5009765625 2023.689331054688 -1397.312744140625 2024.2978515625 C -1397.832641601563 2024.472412109375 -1398.311401367188 2024.56103515625 -1398.735595703125 2024.56103515625 C -1399.474731445313 2024.56103515625 -1400.099365234375 2024.292358398438 -1400.645263671875 2023.73974609375 C -1401.497802734375 2022.877075195313 -1401.658813476563 2021.845092773438 -1401.16748046875 2020.3935546875 C -1400.562133789063 2018.605712890625 -1399.956665039063 2016.785522460938 -1399.37109375 2015.025268554688 C -1398.424438476563 2012.179565429688 -1397.445556640625 2009.236938476563 -1396.443359375 2006.359008789063 C -1396.15380859375 2005.527587890625 -1395.662353515625 2004.719604492188 -1395.095092773438 2004.141967773438 C -1392.46240234375 2001.462768554688 -1389.763427734375 1998.758422851563 -1387.153442382813 1996.14306640625 C -1385.004760742188 1993.990112304688 -1382.783081054688 1991.763916015625 -1380.608642578125 1989.562133789063 C -1380.116455078125 1989.06396484375 -1379.783569335938 1988.255859375 -1379.780517578125 1987.551391601563 C -1379.748413085938 1979.98828125 -1379.751831054688 1972.299682617188 -1379.755126953125 1964.8642578125 L -1379.756469726563 1961.6845703125 C -1379.756469726563 1961.432495117188 -1379.773193359375 1961.190307617188 -1379.790771484375 1960.933715820313 C -1379.798950195313 1960.815307617188 -1379.807495117188 1960.692016601563 -1379.814575195313 1960.561767578125 L -1379.853515625 1959.852783203125 L -1380.5634765625 1959.852783203125 L -1381.7138671875 1959.852783203125 C -1387.0537109375 1959.852783203125 -1392.393798828125 1959.852783203125 -1397.733520507813 1959.852294921875 C -1400.276489257813 1959.852294921875 -1401.22216796875 1958.916748046875 -1401.22265625 1956.400268554688 C -1401.223510742188 1952.593627929688 -1401.223388671875 1948.787109375 -1401.22314453125 1944.980712890625 L -1401.223022460938 1940.283935546875 L -1401.223022460938 1939.19140625 L -1401.223022460938 1938.476440429688 L -1401.937255859375 1938.442260742188 C -1402.061157226563 1938.436401367188 -1402.174194335938 1938.4296875 -1402.2802734375 1938.423461914063 C -1402.5078125 1938.410034179688 -1402.704223632813 1938.3984375 -1402.912841796875 1938.3984375 L -1405.134155273438 1938.398315429688 C -1413.871215820313 1938.3974609375 -1422.608642578125 1938.396728515625 -1431.345581054688 1938.396728515625 Z M -1388.573974609375 2005.683227539063 L -1389.1025390625 2006.151000976563 L -1389.222534179688 2006.2568359375 C -1390.218872070313 2007.136352539063 -1391.34814453125 2008.133056640625 -1391.717651367188 2009.80810546875 C -1391.849243164063 2010.405639648438 -1392.063232421875 2010.992065429688 -1392.289794921875 2011.61279296875 C -1392.401977539063 2011.92041015625 -1392.51806640625 2012.238525390625 -1392.623779296875 2012.5595703125 C -1392.862060546875 2013.283081054688 -1393.098876953125 2014.016357421875 -1393.349609375 2014.792846679688 C -1393.463500976563 2015.1455078125 -1393.581420898438 2015.510864257813 -1393.705688476563 2015.894287109375 L -1394.163696289063 2017.307983398438 L -1392.75439453125 2016.836791992188 C -1392.1259765625 2016.626708984375 -1391.518676757813 2016.413330078125 -1390.931396484375 2016.20703125 C -1389.632568359375 2015.750610351563 -1388.40576171875 2015.319580078125 -1387.163940429688 2014.997802734375 C -1385.507202148438 2014.568237304688 -1384.14501953125 2013.652465820313 -1382.999633789063 2012.1982421875 L -1382.587524414063 2011.675170898438 L -1383.05810546875 2011.2041015625 C -1384.7392578125 2009.521240234375 -1386.38916015625 2007.869750976563 -1388.075073242188 2006.182495117188 L -1388.573974609375 2005.683227539063 Z M -1366.176879882813 1983.44873046875 L -1366.70703125 1983.978515625 C -1372.418090820313 1989.68505859375 -1378.135498046875 1995.39794921875 -1383.753173828125 2001.0107421875 L -1384.283935546875 2001.541137695313 L -1383.753295898438 2002.071655273438 C -1382.168579101563 2003.655883789063 -1380.5166015625 2005.307495117188 -1378.952270507813 2006.871948242188 L -1378.421997070313 2007.402099609375 L -1377.8916015625 2006.871948242188 L -1373.8388671875 2002.820678710938 L -1360.84765625 1989.834106445313 L -1360.31689453125 1989.303588867188 L -1360.847900390625 1988.773071289063 L -1362.0615234375 1987.560668945313 C -1363.2578125 1986.365478515625 -1364.466796875 1985.157592773438 -1365.646728515625 1983.978515625 L -1366.176879882813 1983.44873046875 Z M -1355.003173828125 1973.679321289063 C -1355.949829101563 1973.679321289063 -1356.821166992188 1974.004272460938 -1357.523071289063 1974.619140625 C -1358.559326171875 1975.52734375 -1359.477416992188 1976.553955078125 -1360.365356445313 1977.546630859375 C -1360.737548828125 1977.962768554688 -1361.122436523438 1978.39306640625 -1361.501708984375 1978.797485351563 L -1361.998657226563 1979.327514648438 L -1361.484619140625 1979.841064453125 C -1359.943115234375 1981.38134765625 -1358.287475585938 1983.03564453125 -1356.561645507813 1984.76025390625 L -1356.02880859375 1985.292724609375 L -1355.498657226563 1984.757568359375 C -1355.118408203125 1984.373779296875 -1354.7275390625 1983.984619140625 -1354.349365234375 1983.608276367188 C -1353.493286132813 1982.756103515625 -1352.608154296875 1981.875 -1351.763549804688 1980.973388671875 C -1350.2353515625 1979.341430664063 -1350.2412109375 1976.833374023438 -1351.777099609375 1975.139282226563 C -1352.618408203125 1974.21142578125 -1353.794189453125 1973.679321289063 -1355.003173828125 1973.679321289063 Z M -1394.231567382813 1938.411010742188 C -1394.433349609375 1938.411010742188 -1394.64306640625 1938.423217773438 -1394.854736328125 1938.447143554688 L -1395.5205078125 1938.5224609375 L -1395.5205078125 1939.1923828125 L -1395.5205078125 1953.476806640625 L -1395.5205078125 1954.226806640625 L -1394.7705078125 1954.226806640625 L -1380.573608398438 1954.226806640625 L -1379.929321289063 1954.226806640625 L -1379.832153320313 1953.58984375 C -1379.60693359375 1952.113037109375 -1379.972534179688 1950.881958007813 -1380.918701171875 1949.930786132813 C -1384.701416015625 1946.126831054688 -1388.06982421875 1942.757568359375 -1391.216064453125 1939.630615234375 C -1392.030517578125 1938.8212890625 -1393.045043945313 1938.411010742188 -1394.231567382813 1938.411010742188 Z" stroke="none"/>
      <path d="M -1382.872680664063 2052.67822265625 C -1382.725341796875 2052.638427734375 -1382.5791015625 2052.60009765625 -1382.436279296875 2052.5625 C -1382.0048828125 2052.448974609375 -1381.597534179688 2052.341796875 -1381.207397460938 2052.2138671875 C -1379.333740234375 2051.599609375 -1377.747192382813 2050.45458984375 -1376.619140625 2048.902587890625 C -1375.490966796875 2047.350341796875 -1374.893920898438 2045.490600585938 -1374.892700195313 2043.524169921875 C -1374.88525390625 2032.550659179688 -1374.88134765625 2022.662353515625 -1374.909423828125 2012.771240234375 C -1374.913208007813 2011.574584960938 -1374.525268554688 2010.652709960938 -1373.65185546875 2009.7822265625 C -1369.472534179688 2005.617431640625 -1365.230834960938 2001.374145507813 -1361.128784179688 1997.270629882813 C -1357.09814453125 1993.238525390625 -1352.930419921875 1989.069091796875 -1348.8232421875 1984.975830078125 C -1347.178588867188 1983.336181640625 -1346.221313476563 1981.59423828125 -1345.897216796875 1979.653198242188 C -1345.869873046875 1979.487670898438 -1345.81982421875 1979.3427734375 -1345.76171875 1979.21923828125 L -1345.76171875 1976.882446289063 C -1345.9423828125 1976.432495117188 -1346.104858398438 1975.980102539063 -1346.262939453125 1975.539916992188 C -1346.649169921875 1974.464477539063 -1347.013916015625 1973.448608398438 -1347.5693359375 1972.65673828125 C -1348.432983398438 1971.42578125 -1349.540771484375 1970.46435546875 -1350.861694335938 1969.79931640625 C -1352.112426757813 1969.169555664063 -1353.524291992188 1968.836791992188 -1354.944702148438 1968.836791992188 C -1357.39794921875 1968.836791992188 -1359.719848632813 1969.796508789063 -1361.482788085938 1971.539184570313 C -1364.229858398438 1974.254638671875 -1367.001342773438 1977.041870117188 -1369.681518554688 1979.7373046875 C -1370.264770507813 1980.323852539063 -1370.847900390625 1980.910278320313 -1371.430908203125 1981.496215820313 C -1371.474365234375 1981.539794921875 -1371.561157226563 1981.673461914063 -1371.631103515625 1981.780883789063 C -1371.692138671875 1981.874755859375 -1371.761352539063 1981.981201171875 -1371.83984375 1982.091064453125 L -1372.54931640625 1983.083984375 L -1373.665771484375 1982.59130859375 L -1373.794555664063 1982.534423828125 C -1373.860717773438 1982.505126953125 -1373.926879882813 1982.475830078125 -1373.9931640625 1982.44677734375 L -1374.890258789063 1982.052978515625 L -1374.890258789063 1981.0732421875 L -1374.890258789063 1980.100341796875 C -1374.890258789063 1977.549438476563 -1374.891967773438 1974.99853515625 -1374.8935546875 1972.447509765625 C -1374.897705078125 1966.099243164063 -1374.90185546875 1959.534790039063 -1374.87939453125 1953.076904296875 C -1374.869750976563 1950.367553710938 -1375.801147460938 1948.11328125 -1377.726684570313 1946.185180664063 C -1378.759399414063 1945.151000976563 -1379.812377929688 1944.101318359375 -1380.830688476563 1943.086059570313 C -1382.927368164063 1940.99560546875 -1385.095458984375 1938.833984375 -1387.210693359375 1936.686279296875 C -1388.9267578125 1934.94384765625 -1390.775268554688 1933.948852539063 -1392.861572265625 1933.64453125 C -1393.073852539063 1933.613525390625 -1393.25146484375 1933.554931640625 -1393.391235351563 1933.5 L -1456.603271484375 1933.5 C -1456.755859375 1933.537719726563 -1456.906860351563 1933.57373046875 -1457.05419921875 1933.608764648438 C -1457.480102539063 1933.710205078125 -1457.88232421875 1933.805908203125 -1458.25634765625 1933.927734375 C -1461.848266601563 1935.099243164063 -1463.9794921875 1937.489501953125 -1464.771606445313 1941.233764648438 C -1464.819580078125 1941.461791992188 -1464.881225585938 1941.668212890625 -1464.935668945313 1941.850463867188 C -1464.937133789063 1941.855224609375 -1464.9384765625 1941.859985351563 -1464.93994140625 1941.864868164063 L -1464.93994140625 2044.525756835938 C -1464.906982421875 2044.652465820313 -1464.875244140625 2044.77783203125 -1464.84423828125 2044.900390625 C -1464.747192382813 2045.283203125 -1464.655639648438 2045.644897460938 -1464.544555664063 2045.984985351563 C -1463.359008789063 2049.61474609375 -1460.986083984375 2051.758056640625 -1457.288330078125 2052.537841796875 C -1457.116821289063 2052.57421875 -1456.969848632813 2052.627197265625 -1456.849609375 2052.67822265625 L -1382.872680664063 2052.67822265625 M -1431.345581054688 1937.646728515625 C -1422.544799804688 1937.646728515625 -1413.743530273438 1937.647583007813 -1404.942626953125 1937.648315429688 L -1402.912841796875 1937.6484375 C -1402.68212890625 1937.6484375 -1402.465454101563 1937.661254882813 -1402.236206054688 1937.674682617188 C -1402.132690429688 1937.680786132813 -1402.022338867188 1937.687377929688 -1401.901489257813 1937.693115234375 L -1400.473022460938 1937.761352539063 L -1400.473022460938 1939.19140625 L -1400.473022460938 1940.283935546875 L -1400.47314453125 1944.980712890625 C -1400.473388671875 1948.787109375 -1400.473510742188 1952.593505859375 -1400.47265625 1956.400024414063 C -1400.472412109375 1957.443725585938 -1400.281494140625 1958.161987304688 -1399.905151367188 1958.534912109375 C -1399.525390625 1958.911376953125 -1398.794677734375 1959.102294921875 -1397.733520507813 1959.102294921875 C -1392.393676757813 1959.102783203125 -1387.0537109375 1959.102783203125 -1381.7138671875 1959.102783203125 L -1380.5634765625 1959.102783203125 L -1379.143432617188 1959.102783203125 L -1379.065673828125 1960.520629882813 C -1379.058837890625 1960.647338867188 -1379.050537109375 1960.76708984375 -1379.042602539063 1960.882202148438 C -1379.024780273438 1961.14013671875 -1379.006469726563 1961.40673828125 -1379.006469726563 1961.684326171875 L -1379.005126953125 1964.863891601563 C -1379.001831054688 1972.30029296875 -1378.998413085938 1979.98974609375 -1379.030517578125 1987.5546875 C -1379.034423828125 1988.4560546875 -1379.444580078125 1989.451049804688 -1380.075073242188 1990.089111328125 C -1382.250854492188 1992.292358398438 -1384.473266601563 1994.519287109375 -1386.62255859375 1996.6728515625 C -1389.231567382813 1999.287231445313 -1391.929443359375 2001.990478515625 -1394.559936523438 2004.667602539063 C -1395.052368164063 2005.168823242188 -1395.480712890625 2005.875244140625 -1395.735107421875 2006.605590820313 C -1396.735473632813 2009.478637695313 -1397.713623046875 2012.418701171875 -1398.659423828125 2015.262084960938 C -1399.245361328125 2017.023193359375 -1399.851196289063 2018.844360351563 -1400.457153320313 2020.634033203125 C -1400.951049804688 2022.093383789063 -1400.583129882813 2022.735717773438 -1400.111694335938 2023.212646484375 C -1399.702880859375 2023.62646484375 -1399.278564453125 2023.81103515625 -1398.735717773438 2023.81103515625 C -1398.392700195313 2023.81103515625 -1397.994384765625 2023.735595703125 -1397.551513671875 2023.586791992188 C -1395.738891601563 2022.978149414063 -1393.895263671875 2022.363891601563 -1392.1123046875 2021.769775390625 C -1389.169311523438 2020.789306640625 -1386.1259765625 2019.775268554688 -1383.141845703125 2018.759521484375 C -1382.803955078125 2018.644409179688 -1382.43212890625 2018.430419921875 -1382.001586914063 2018.182739257813 C -1381.751342773438 2018.038696289063 -1381.49267578125 2017.889770507813 -1381.202270507813 2017.737060546875 L -1379.004028320313 2016.580932617188 L -1379.004028320313 2019.064697265625 L -1379.004028320313 2019.376220703125 L -1379.004028320313 2019.999267578125 L -1379.003784179688 2026.481201171875 C -1379.003540039063 2031.9765625 -1379.003295898438 2037.472045898438 -1379.004760742188 2042.967407226563 C -1379.005737304688 2046.521606445313 -1381.040771484375 2048.560302734375 -1384.588012695313 2048.56103515625 C -1396.719360351563 2048.5634765625 -1408.593383789063 2048.564697265625 -1419.88037109375 2048.564697265625 C -1431.956420898438 2048.564697265625 -1443.849853515625 2048.563232421875 -1455.22998046875 2048.560546875 C -1458.659545898438 2048.560302734375 -1460.790283203125 2046.43115234375 -1460.790649414063 2043.004272460938 C -1460.794189453125 2007.930541992188 -1460.794067382813 1975.290283203125 -1460.790405273438 1943.218139648438 C -1460.790283203125 1939.78369140625 -1458.6552734375 1937.649780273438 -1455.21875 1937.649169921875 C -1447.260864257813 1937.647338867188 -1439.303466796875 1937.646728515625 -1431.345581054688 1937.646728515625 M -1388.542358398438 2004.65380859375 L -1387.544555664063 2005.652465820313 C -1385.858520507813 2007.339721679688 -1384.208740234375 2008.991088867188 -1382.527587890625 2010.674072265625 L -1381.586303710938 2011.616088867188 L -1382.410400390625 2012.662353515625 C -1383.6611328125 2014.250122070313 -1385.154418945313 2015.25146484375 -1386.975708007813 2015.723754882813 C -1388.18701171875 2016.037719726563 -1389.399291992188 2016.463623046875 -1390.682739257813 2016.91455078125 C -1391.272705078125 2017.121826171875 -1391.882690429688 2017.336181640625 -1392.516479492188 2017.548095703125 L -1395.335205078125 2018.490478515625 L -1394.419189453125 2015.663208007813 C -1394.295043945313 2015.279907226563 -1394.177124023438 2014.914916992188 -1394.063354492188 2014.562377929688 C -1393.812255859375 2013.784912109375 -1393.5751953125 2013.050537109375 -1393.336181640625 2012.324829101563 C -1393.226684570313 2011.992553710938 -1393.108520507813 2011.668823242188 -1392.994384765625 2011.355712890625 C -1392.776611328125 2010.759033203125 -1392.570922851563 2010.195434570313 -1392.450073242188 2009.646606445313 C -1392.02783203125 2007.732666015625 -1390.74755859375 2006.602661132813 -1389.718872070313 2005.694580078125 L -1389.599609375 2005.589233398438 L -1388.542358398438 2004.65380859375 M -1366.176879882813 1982.388549804688 L -1365.116577148438 1983.447998046875 C -1363.936767578125 1984.627075195313 -1362.727661132813 1985.8349609375 -1361.531372070313 1987.030029296875 L -1360.317749023438 1988.242553710938 L -1359.255981445313 1989.303344726563 L -1360.317504882813 1990.364501953125 L -1373.30859375 2003.35107421875 L -1377.361450195313 2007.402465820313 L -1378.422119140625 2008.462646484375 L -1379.482543945313 2007.402221679688 C -1381.046997070313 2005.837768554688 -1382.698852539063 2004.186279296875 -1384.283569335938 2002.60205078125 L -1385.344970703125 2001.541015625 L -1384.283203125 2000.480102539063 C -1378.66552734375 1994.867309570313 -1372.948120117188 1989.154418945313 -1367.237182617188 1983.447998046875 L -1366.176879882813 1982.388549804688 M -1355.003173828125 1972.929321289063 C -1353.5830078125 1972.929321289063 -1352.20458984375 1973.55126953125 -1351.221557617188 1974.635498046875 C -1349.421020507813 1976.621459960938 -1349.418579101563 1979.566528320313 -1351.216186523438 1981.486206054688 C -1352.069702148438 1982.397338867188 -1352.959594726563 1983.283203125 -1353.8203125 1984.139770507813 C -1354.197509765625 1984.515258789063 -1354.587524414063 1984.903442382813 -1354.965942382813 1985.285400390625 L -1356.026123046875 1986.355590820313 L -1357.091796875 1985.290771484375 C -1358.817626953125 1983.566162109375 -1360.47314453125 1981.911987304688 -1362.014770507813 1980.371704101563 L -1363.042724609375 1979.344604492188 L -1362.048828125 1978.284545898438 C -1361.675537109375 1977.886474609375 -1361.310668945313 1977.478515625 -1360.92431640625 1977.046630859375 C -1360.021484375 1976.037231445313 -1359.088012695313 1974.993408203125 -1358.017211914063 1974.055053710938 C -1357.176513671875 1973.318603515625 -1356.13427734375 1972.929321289063 -1355.003173828125 1972.929321289063 M -1394.231567382813 1937.661010742188 C -1392.83984375 1937.661010742188 -1391.647583007813 1938.144653320313 -1390.687377929688 1939.0986328125 C -1387.5400390625 1942.226684570313 -1384.170654296875 1945.596923828125 -1380.386962890625 1949.40185546875 C -1379.263793945313 1950.530883789063 -1378.82763671875 1951.97802734375 -1379.0908203125 1953.703002929688 L -1379.285034179688 1954.976806640625 L -1380.573608398438 1954.976806640625 L -1394.7705078125 1954.976806640625 L -1396.2705078125 1954.976806640625 L -1396.2705078125 1953.476806640625 L -1396.2705078125 1939.1923828125 L -1396.2705078125 1937.852416992188 L -1394.939086914063 1937.701904296875 C -1394.699340820313 1937.6748046875 -1394.461303710938 1937.661010742188 -1394.231567382813 1937.661010742188 M -1382.671508789063 2054.17822265625 L -1457.175170898438 2054.17822265625 C -1457.316528320313 2054.119140625 -1457.45263671875 2054.036376953125 -1457.599853515625 2054.005126953125 C -1461.854370117188 2053.10791015625 -1464.626098632813 2050.56640625 -1465.970458984375 2046.45068359375 C -1466.15576171875 2045.883056640625 -1466.284912109375 2045.297607421875 -1466.43994140625 2044.720458984375 C -1466.43994140625 2010.364013671875 -1466.43994140625 1976.00732421875 -1466.43994140625 1941.650634765625 C -1466.372436523438 1941.408935546875 -1466.291015625 1941.169677734375 -1466.239379882813 1940.924560546875 C -1465.341552734375 1936.680419921875 -1462.8564453125 1933.850341796875 -1458.721435546875 1932.501708984375 C -1458.08984375 1932.2958984375 -1457.433837890625 1932.165283203125 -1456.7890625 1932 C -1435.5576171875 1932 -1414.326049804688 1932 -1393.09423828125 1932 C -1392.945068359375 1932.0546875 -1392.799682617188 1932.1376953125 -1392.645385742188 1932.16015625 C -1390.0595703125 1932.537353515625 -1387.95849609375 1933.789306640625 -1386.141967773438 1935.6337890625 C -1383.0048828125 1938.819091796875 -1379.824462890625 1941.9619140625 -1376.665283203125 1945.125244140625 C -1374.470947265625 1947.322509765625 -1373.368286132813 1949.947021484375 -1373.37939453125 1953.082275390625 C -1373.410766601563 1962.088134765625 -1373.390258789063 1971.09423828125 -1373.390258789063 1980.100341796875 L -1373.390258789063 1981.0732421875 C -1373.280151367188 1981.12158203125 -1373.17041015625 1981.17041015625 -1373.060302734375 1981.218994140625 C -1372.873291015625 1980.957275390625 -1372.718383789063 1980.66357421875 -1372.494506835938 1980.4384765625 C -1369.18212890625 1977.10986328125 -1365.877075195313 1973.773681640625 -1362.537231445313 1970.472412109375 C -1360.410034179688 1968.36962890625 -1357.6640625 1967.336791992188 -1354.944702148438 1967.336791992188 C -1351.65869140625 1967.336791992188 -1348.41162109375 1968.8447265625 -1346.341430664063 1971.795166015625 C -1345.362060546875 1973.191650390625 -1344.939819335938 1974.978515625 -1344.26171875 1976.586181640625 L -1344.26171875 1979.674560546875 C -1344.315185546875 1979.748779296875 -1344.403930664063 1979.81689453125 -1344.417236328125 1979.8974609375 C -1344.82373046875 1982.332275390625 -1346.028686523438 1984.307861328125 -1347.764282226563 1986.0380859375 C -1356.050537109375 1994.296630859375 -1364.30615234375 2002.586669921875 -1372.593017578125 2010.8447265625 C -1373.158447265625 2011.408203125 -1373.411987304688 2011.95263671875 -1373.409423828125 2012.7666015625 C -1373.38037109375 2023.01953125 -1373.3857421875 2033.2724609375 -1373.392700195313 2043.525146484375 C -1373.395629882813 2048.183837890625 -1376.308715820313 2052.1865234375 -1380.740112304688 2053.63916015625 C -1381.374755859375 2053.84716796875 -1382.02734375 2053.999755859375 -1382.671508789063 2054.17822265625 Z M -1431.345581054688 1939.146728515625 C -1439.303344726563 1939.146728515625 -1447.260620117188 1939.147338867188 -1455.218383789063 1939.149169921875 C -1457.802368164063 1939.149658203125 -1459.290283203125 1940.6337890625 -1459.290405273438 1943.21826171875 C -1459.294189453125 1976.48046875 -1459.2939453125 2009.7421875 -1459.290649414063 2043.004150390625 C -1459.290405273438 2045.611572265625 -1457.846069335938 2047.060302734375 -1455.229858398438 2047.060546875 C -1443.447631835938 2047.063354492188 -1431.66259765625 2047.064697265625 -1419.88037109375 2047.064697265625 C -1408.115356445313 2047.064697265625 -1396.353271484375 2047.063354492188 -1384.588256835938 2047.06103515625 C -1381.864501953125 2047.060546875 -1380.505493164063 2045.684326171875 -1380.504760742188 2042.967041015625 C -1380.502685546875 2035.31103515625 -1380.504028320313 2027.655029296875 -1380.504028320313 2019.999267578125 C -1380.504150390625 2019.6875 -1380.504028320313 2019.3759765625 -1380.504028320313 2019.064697265625 C -1381.310791015625 2019.489013671875 -1381.94921875 2019.93798828125 -1382.658447265625 2020.179443359375 C -1387.455688476563 2021.8125 -1392.27001953125 2023.3955078125 -1397.073974609375 2025.0087890625 C -1397.644653320313 2025.200439453125 -1398.201049804688 2025.31103515625 -1398.735595703125 2025.31103515625 C -1399.621337890625 2025.31103515625 -1400.447021484375 2025.007568359375 -1401.178833007813 2024.266845703125 C -1402.351684570313 2023.080078125 -1402.392333984375 2021.6728515625 -1401.8779296875 2020.153076171875 C -1400.294189453125 2015.4755859375 -1398.775634765625 2010.77587890625 -1397.151611328125 2006.1123046875 C -1396.8369140625 2005.208740234375 -1396.297973632813 2004.29638671875 -1395.630126953125 2003.616455078125 C -1390.827880859375 1998.729248046875 -1385.956909179688 1993.910400390625 -1381.142333984375 1989.03515625 C -1380.789428710938 1988.677978515625 -1380.53271484375 1988.05078125 -1380.530517578125 1987.548095703125 C -1380.493896484375 1978.927001953125 -1380.50341796875 1970.30615234375 -1380.506469726563 1961.684814453125 C -1380.506469726563 1961.346435546875 -1380.541259765625 1961.008056640625 -1380.5634765625 1960.602783203125 C -1381.016479492188 1960.602783203125 -1381.365234375 1960.602783203125 -1381.7138671875 1960.602783203125 C -1387.0537109375 1960.602783203125 -1392.393798828125 1960.602783203125 -1397.733642578125 1960.602294921875 C -1400.688720703125 1960.602294921875 -1401.972045898438 1959.3310546875 -1401.97265625 1956.400390625 C -1401.973876953125 1951.028076171875 -1401.973022460938 1945.656005859375 -1401.973022460938 1940.283935546875 L -1401.973022460938 1939.19140625 C -1402.351196289063 1939.17333984375 -1402.632080078125 1939.1484375 -1402.912841796875 1939.1484375 C -1412.390258789063 1939.147705078125 -1421.868286132813 1939.146728515625 -1431.345581054688 1939.146728515625 Z M -1388.605590820313 2006.712646484375 C -1389.595581054688 2007.588623046875 -1390.655029296875 2008.472900390625 -1390.985229492188 2009.9697265625 C -1391.197387695313 2010.932373046875 -1391.601196289063 2011.852294921875 -1391.911499023438 2012.794189453125 C -1392.255859375 2013.83984375 -1392.59130859375 2014.88818359375 -1392.9921875 2016.12548828125 C -1390.98046875 2015.452880859375 -1389.195434570313 2014.74951171875 -1387.35205078125 2014.271728515625 C -1385.738159179688 2013.853271484375 -1384.54931640625 2012.95361328125 -1383.588745117188 2011.734130859375 C -1385.269897460938 2010.05126953125 -1386.919677734375 2008.39990234375 -1388.605590820313 2006.712646484375 Z M -1366.176879882813 1984.509033203125 C -1371.887939453125 1990.215576171875 -1377.605346679688 1995.928466796875 -1383.223022460938 2001.541259765625 C -1381.638305664063 2003.12548828125 -1379.986328125 2004.777099609375 -1378.421875 2006.341552734375 C -1372.769897460938 2000.691650390625 -1367.057983398438 1994.98193359375 -1361.3779296875 1989.3037109375 C -1362.962646484375 1987.720458984375 -1364.595947265625 1986.0888671875 -1366.176879882813 1984.509033203125 Z M -1355.003173828125 1974.429321289063 C -1355.72509765625 1974.429321289063 -1356.440307617188 1974.667846679688 -1357.02880859375 1975.183349609375 C -1358.466064453125 1976.44287109375 -1359.682495117188 1977.953857421875 -1360.95458984375 1979.310546875 C -1359.412963867188 1980.850830078125 -1357.75732421875 1982.505126953125 -1356.031494140625 1984.229736328125 C -1354.792114257813 1982.978759765625 -1353.518920898438 1981.750244140625 -1352.310913085938 1980.460693359375 C -1351.033203125 1979.09619140625 -1351.072631835938 1977.032958984375 -1352.332763671875 1975.64306640625 C -1353.03759765625 1974.86572265625 -1354.026611328125 1974.429321289063 -1355.003173828125 1974.429321289063 Z M -1394.231567382813 1939.161010742188 C -1394.4072265625 1939.161010742188 -1394.586791992188 1939.171630859375 -1394.7705078125 1939.1923828125 L -1394.7705078125 1953.476806640625 L -1380.573608398438 1953.476806640625 C -1380.387329101563 1952.25537109375 -1380.652099609375 1951.26220703125 -1381.450439453125 1950.459716796875 C -1384.872680664063 1947.018310546875 -1388.30224609375 1943.583984375 -1391.744750976563 1940.16259765625 C -1392.436401367188 1939.475341796875 -1393.2734375 1939.161010742188 -1394.231567382813 1939.161010742188 Z" stroke="none" fill="#fff"/>
    </g>
    <path id="Path_1684" data-name="Path 1684" d="M-1373.06,1981.219a6.043,6.043,0,0,1,.566-.781c3.312-3.329,6.617-6.665,9.957-9.966a10.624,10.624,0,0,1,16.2,1.323,25.292,25.292,0,0,1,2.08,4.791v3.088c-.053.074-.142.142-.156.223a11.12,11.12,0,0,1-3.347,6.141q-12.429,12.388-24.829,24.807c-.176.175-8.115,8.488-8.115,8.488l-1.95.847,1.516-31.144S-1373.17,1981.17-1373.06,1981.219Zm-12.6,39.614s-6.605,2.563-11.409,4.176a3.675,3.675,0,0,1-4.1-.742,3.7,3.7,0,0,1-.7-4.114c1.584-4.677,3.1-9.377,4.726-14.041a6.893,6.893,0,0,1,1.521-2.5c4.8-4.887,9.673-9.706,14.488-14.581l-1.516,31.118Zm19.488-36.324-17.046,17.032,4.8,4.8,17.044-17.038Zm10.145-.279c1.239-1.251,2.513-2.479,3.721-3.769a3.524,3.524,0,0,0-.022-4.818,3.371,3.371,0,0,0-4.7-.46c-1.437,1.26-2.654,2.771-3.926,4.127Zm-27.557,27.5-5.017-5.021a6.2,6.2,0,0,0-2.38,3.257,29.552,29.552,0,0,1-.926,2.824c-.344,1.046-.68,2.094-1.081,3.331,2.012-.673,3.8-1.376,5.64-1.854A6.863,6.863,0,0,0-1383.589,2011.734Z" transform="translate(0 0.139)" fill="#f47741"/>
    <path id="Path_1643" data-name="Path 1643" d="M-1363.321,2117.769q12.4,0,24.8,0c2.349,0,3.906,1.481,3.864,3.611a3.5,3.5,0,0,1-3.149,3.437,8.269,8.269,0,0,1-.867.031q-24.6,0-49.206,0c-2.258,0-3.672-1.084-3.944-3a3.452,3.452,0,0,1,3.517-4.076c4.374-.031,8.748-.01,13.122-.01Z" transform="translate(-60.177 -149.907)" fill="#f47741"/>
    <path id="Path_1644" data-name="Path 1644" d="M-1370.581,2191.921c5.978,0,11.955-.009,17.933.007a3.473,3.473,0,0,1,3.5,2.965,3.478,3.478,0,0,1-2.189,3.861,4.669,4.669,0,0,1-1.6.276q-17.643.022-35.287.007a3.561,3.561,0,0,1-3.8-3.609,3.55,3.55,0,0,1,3.788-3.506Q-1379.4,2191.913-1370.581,2191.921Z" transform="translate(-60.061 -209.751)" fill="#f47741"/>
    <path id="Path_1645" data-name="Path 1645" d="M-1370.562,2347.246q-8.774,0-17.547,0a3.545,3.545,0,0,1-3.877-3.5,3.588,3.588,0,0,1,3.892-3.617q17.6-.011,35.191,0a3.6,3.6,0,0,1,3.819,3.2,3.564,3.564,0,0,1-2.688,3.825,5.235,5.235,0,0,1-1.242.094Q-1361.788,2347.251-1370.562,2347.246Z" transform="translate(-60.083 -329.346)" fill="#f47741"/>
    <path id="Path_1646" data-name="Path 1646" d="M-1370.519,2273.121q-8.918,0-17.837,0a3.515,3.515,0,0,1-3.428-2.327,3.384,3.384,0,0,1,1.045-3.909,4.46,4.46,0,0,1,2.371-.857q17.837-.081,35.673-.03a3.552,3.552,0,0,1,3.61,3.6,3.56,3.56,0,0,1-3.693,3.519C-1358.692,2273.129-1364.606,2273.121-1370.519,2273.121Z" transform="translate(-60.065 -269.518)" fill="#f47741"/>
    <path id="Path_1647" data-name="Path 1647" d="M-1229.236,2454q5.207,0,10.414,0a3.553,3.553,0,0,1,3.859,3.532,3.565,3.565,0,0,1-3.814,3.6q-10.462.022-20.923,0a3.54,3.54,0,0,1-3.842-3.649c.029-2.088,1.581-3.48,3.893-3.482Q-1234.443,2453.994-1229.236,2454Z" transform="translate(-179.875 -421.244)" fill="#f47741"/>
  </g>
</svg>
